<svg width="512" height="512" viewBox="0 0 512 512" fill="none" xmlns="http://www.w3.org/2000/svg">
<path d="M233.256 289.5H188.455V224.359H208.492V270.922H233.256V289.5Z" fill="#01C37D"/>
<path d="M180.497 289.5H160.46C160.46 289.5 149.633 272.55 147.492 268.858C147.492 268.858 147.371 285.769 147.492 289.5H127.455V224.319H147.492C148.704 226.423 160.137 252.305 160.46 252.9V224.319H180.497C180.376 232.219 180.376 285.729 180.497 289.5Z" fill="#01C37D"/>
<path d="M119.496 289.5H99.7824L92.2684 245.398L84.7544 289.5H65L75.6246 224.2H108.912L119.496 289.5Z" fill="#01C37D"/>
<path d="M447 289.5H418.802L400.704 271.756V289.5H380.667V224.399H400.704V242.182L418.802 224.399H446.434L413.995 256.949L447 289.5Z" fill="#01C37D"/>
<path d="M241.214 254.25C241.214 261.792 243.961 269.096 248.93 274.852C253.899 280.608 260.807 284.419 268.402 285.61C275.997 286.801 283.753 285.292 290.297 281.362C296.842 277.432 301.77 271.319 304.154 264.174C306.537 256.989 306.255 249.209 303.346 242.222C300.437 235.236 295.105 229.48 288.278 226.026C281.45 222.573 273.613 221.62 266.14 223.327C258.666 225.034 252.081 229.321 247.516 235.394L273.492 254.21H241.214V254.25Z" fill="#01C37D"/>
<path d="M372.709 254.25C372.709 261.792 369.962 269.096 364.993 274.852C360.024 280.608 353.116 284.419 345.521 285.61C337.926 286.801 330.17 285.292 323.625 281.362C317.081 277.432 312.153 271.319 309.769 264.174C307.386 256.989 307.668 249.209 310.577 242.222C313.486 235.236 318.818 229.48 325.645 226.026C332.473 222.573 340.31 221.62 347.783 223.327C355.257 225.034 361.842 229.321 366.407 235.394L340.431 254.21H372.709V254.25Z" fill="#01C37D"/>
<path d="M306.982 269.573L317.122 279.536L306.982 289.5L296.842 279.536L306.982 269.573Z" fill="#01C37D"/>
</svg>
