<svg width="410" height="84" viewBox="0 0 410 84" fill="none" xmlns="http://www.w3.org/2000/svg">
<path fill-rule="evenodd" clip-rule="evenodd" d="M0 48V0H15V19.6563C20.6692 15.7019 27.5638 13.3828 35 13.3828C54.33 13.3828 70 29.0528 70 48.3828C70 67.7128 54.33 83.3828 35 83.3828C15.67 83.3828 0 67.7128 0 48.3828C0 48.255 0.00068458 48.1274 0.00205027 48H0ZM55 48.3828C55 59.4285 46.0457 68.3828 35 68.3828C23.9543 68.3828 15 59.4285 15 48.3828C15 37.3371 23.9543 28.3828 35 28.3828C46.0457 28.3828 55 37.3371 55 48.3828Z" fill="#5089EB"/>
<path d="M0 83V58L0.571276 59.809C3.98949 70.6334 12.2959 79.2221 23 83H0Z" fill="#5089EB"/>
<path d="M120 13V83H105V13H120Z" fill="#5089EB"/>
<path d="M95 31V83H80V31H95Z" fill="#5089EB"/>
<path d="M87.5 28C83.3579 28 80 24.6421 80 20.5V20.5C80 16.3579 83.3579 13 87.5 13V13C91.6421 13 95 16.3579 95 20.5V20.5C95 24.6421 91.6421 28 87.5 28V28Z" fill="#5089EB"/>
<path d="M340.635 49.7903C340.391 47.9578 339.765 46.3056 338.758 44.8336C337.294 42.851 335.02 41.8596 331.938 41.8596C327.544 41.8596 324.539 44.0075 322.921 48.3033C322.067 50.5864 321.64 53.6205 321.64 57.4055C321.64 61.0104 322.067 63.9093 322.921 66.1023C324.478 70.1878 327.407 72.2305 331.709 72.2305C334.761 72.2305 336.927 71.4194 338.209 69.7972C339.491 68.175 340.269 66.0722 340.543 63.4887H353.863C353.558 67.394 352.123 71.089 349.56 74.5737C345.471 80.1912 339.414 83 331.389 83C323.364 83 317.459 80.6568 313.676 75.9705C309.892 71.2842 308 65.201 308 57.721C308 49.2796 310.09 42.7158 314.271 38.0295C318.451 33.3432 324.218 31 331.572 31C337.828 31 342.939 32.3819 346.905 35.1456C350.903 37.9093 353.268 42.7909 354 49.7903H340.635Z" fill="#2C2C2C"/>
<path d="M280.085 31C285.341 31 289.634 32.3823 292.961 35.147C296.32 37.8805 298 42.4313 298 48.7993V83H284.377V52.1075C284.377 49.4361 284.02 47.3859 283.304 45.957C281.998 43.3477 279.51 42.043 275.84 42.043C271.33 42.043 268.235 43.9534 266.556 47.7742C265.685 49.7933 265.249 52.3716 265.249 55.509V83H252V31.3106H264.83V39.7133C266.54 37.1039 268.158 35.2246 269.682 34.0753C272.419 32.0251 275.886 31 280.085 31Z" fill="#2C2C2C"/>
<path d="M392.085 31C397.341 31 401.634 32.3823 404.961 35.147C408.32 37.8805 410 42.4313 410 48.7993V83H396.377V52.1075C396.377 49.4361 396.02 47.3859 395.304 45.957C393.998 43.3477 391.51 42.043 387.84 42.043C383.33 42.043 380.235 43.9534 378.556 47.7742C377.685 49.7933 377.249 52.3716 377.249 55.509V83H364V13H376.83V39.7133C378.54 37.1039 380.158 35.2246 381.682 34.0753C384.419 32.0251 387.886 31 392.085 31Z" fill="#2C2C2C"/>
<path d="M209.65 31V61.6679C209.65 64.5619 209.993 66.7403 210.679 68.2029C211.894 70.7858 214.278 72.0772 217.831 72.0772C222.381 72.0772 225.498 70.2412 227.181 66.5691C228.054 64.5775 228.49 61.9479 228.49 58.6804V31H242V82.8755H229.051V74.6912C228.926 74.8468 228.614 75.3136 228.116 76.0916C227.617 76.8695 227.025 77.5542 226.339 78.1454C224.251 80.0126 222.226 81.2884 220.262 81.9731C218.33 82.6577 216.055 83 213.437 83C205.895 83 200.815 80.2926 198.197 74.8779C196.732 71.8905 196 67.4871 196 61.6679V31H209.65Z" fill="#2C2C2C"/>
<path fill-rule="evenodd" clip-rule="evenodd" d="M145 13.0002H130V83.0002H144.831V60.3049V59.9405V54.1755V48.4105V47.9994L145 25.8519L145 25.0998V13.0002Z" fill="#5089EB"/>
<path d="M157.888 48.9653H155V61H160.303C165.73 61 170.352 59.9942 174.169 57.9827C178.009 55.9711 180.941 53.1618 182.965 49.5549C184.988 45.948 186 41.7861 186 37.0694C186 32.3526 185 28.1907 182.999 24.5838C181.021 20.9538 178.147 18.1214 174.376 16.0867C170.605 14.0289 166.04 13 160.682 13H155V25.2775H157.819C160.717 25.2775 163.108 25.7746 164.994 26.7688C166.879 27.7399 168.282 29.1156 169.202 30.896C170.145 32.6532 170.616 34.711 170.616 37.0694C170.616 39.4046 170.145 41.474 169.202 43.2775C168.282 45.0578 166.879 46.4566 164.994 47.474C163.131 48.4682 160.763 48.9653 157.888 48.9653Z" fill="#2C2C2C"/>
</svg>
