<svg width="8744" height="2700" viewBox="0 0 8744 2700" fill="none" xmlns="http://www.w3.org/2000/svg">
<path d="M1003.9 700.5C1100.9 630.2 1164 515.9 1164 387C1164 187.8 1013.5 23.8 820 2.4C805.9 0.8 791.5 0 777 0H0V276H695C774 276 838 340 838 419C838 498 774 562 695 562H0V838H695C774 838 838 902 838 981C838 1060 774 1124 695 1124L421.3 1125H0V1401H777C791.5 1401 805.9 1400.2 820 1398.6C1013.5 1377.2 1164 1213.2 1164 1014C1164 814.8 1100.9 770.8 1003.9 700.5Z" fill="#FFCC01"/>
<path d="M2569 821C2569 1141.3 2311.3 1401 1991 1401C1670.7 1401 1414 1141.3 1414 821V0H1690C1690 0 1690 862.8 1690 863C1700.2 1012.1 1837.4 1125 1991 1125C2144.6 1125 2284.3 1008.2 2293 856.1C2304.6 653.2 2293 0 2293 0H2569V821Z" fill="#FFCC01"/>
<path d="M4070 812.1V1401H4346V423C4346 421.5 4346 420 4346 418.5C4346 187.4 4158.6 0 3927.5 0C3696.4 0 3658 71.9 3582.5 181.5C3507 71.9 3380.7 0 3237.5 0C3010.4 0 2825.6 180.9 2819.2 406.4C2819.1 410.4 2819 414.4 2819 418.5V1401H3095V812.1L3095.5 429.5C3095.5 333.7 3173.3 256 3269.3 256C3365.3 256 3443.1 333.7 3443.1 429.5L3444.6 782.3V1401H3720.6V782.3L3722.1 429.5C3722.1 333.7 3799.9 256 3895.9 256C3991.9 256 4069.7 333.7 4069.7 429.5L4070.2 812.1H4070Z" fill="#FFCC01"/>
<path d="M5844 418.5C5844 468.5 5835.2 516.5 5819.1 561C5819 561.3 5818.9 561.7 5818.7 562C5760.1 722.4 5606.2 837 5425.5 837H5007.5V561H5404.5C5483.2 561 5547 497.2 5547 418.5C5547 339.8 5483.2 276 5404.5 276H4872V1401H4596V0H5416C5419.2 0 5422.3 0 5425.5 0C5656.6 0 5844 187.4 5844 418.5Z" fill="#FFCC01"/>
<path d="M7342 418.5C7342 468.5 7333.2 516.5 7317.1 561C7317 561.3 7316.9 561.7 7316.7 562C7258.1 722.4 7104.2 837 6923.5 837H6505.5V561H6902.5C6981.2 561 7045 497.2 7045 418.5C7045 339.8 6981.2 276 6902.5 276H6370V1401H6094V0H6914C6917.2 0 6920.3 0 6923.5 0C7154.6 0 7342 187.4 7342 418.5Z" fill="#FFCC01"/>
<path d="M8742 327.5C8742 598.9 8557 826.5 8304.7 888.4V1401H8028.7V888.4C7776.4 826.5 7592 598.9 7592 327.5V0H7868V355C7867.8 357.6 7868.1 360.3 7868 363C7867.8 367.8 7868 372.6 7868 377.5C7868 493.1 7932.7 593.5 8028.7 643.4C8070 664.9 8116.9 677 8166.7 677C8216.5 677 8263.4 664.9 8304.7 643.4C8400.7 593.5 8466 493.2 8466 377.5H8466.2C8466.2 374.1 8466.2 370.8 8466 367.5V0H8742V327.5Z" fill="#FFCC01"/>
<path d="M934 1964.05C934 2001.46 927.414 2037.36 915.365 2070.65C915.29 2070.87 915.215 2071.17 915.065 2071.4C871.209 2191.38 756.031 2277.11 620.796 2277.11H307.966V2070.65H605.079C663.978 2070.65 711.726 2022.92 711.726 1964.05C711.726 1905.18 663.978 1857.46 605.079 1857.46H206.558V2699H0V1651H613.686C616.081 1651 618.401 1651 620.796 1651C793.75 1651 934 1791.18 934 1964.05Z" fill="#5F5F5F"/>
<path d="M1963.43 1994.15L1890.86 1945.67L1365.87 2699H1242.65L1790.68 1878.72L1718.18 1830.24L1964.48 1727.08L1963.43 1994.15Z" fill="#6EBF70"/>
<path d="M1467.25 2331.69L1618.68 1893.9L1668.95 2039.33L1774.07 1882.01L1692.97 1827.85L1790.45 1787L1782.9 1766.06C1758.21 1697.01 1692.74 1651 1619.5 1651C1546.18 1651 1480.79 1697.01 1456.03 1765.98L1121 2698.92H1228.29L1467.4 2331.61L1467.25 2331.69Z" fill="#5F5F5F"/>
<path d="M1867.14 2000.51L1519.32 2499.63H1827.12L1896.1 2699H2118L1867.14 2000.51Z" fill="#5F5F5F"/>
<path d="M3166 1895.98C3166 2099 3027.49 2269.25 2838.6 2315.56V2699H2631.96V2315.56C2443.06 2269.25 2305 2099 2305 1895.98V1651H2511.64V1916.55C2511.49 1918.5 2511.71 1920.52 2511.64 1922.54C2511.49 1926.13 2511.64 1929.72 2511.64 1933.38C2511.64 2019.86 2560.08 2094.96 2631.96 2132.29C2662.88 2148.37 2697.99 2157.42 2735.28 2157.42C2772.56 2157.42 2807.67 2148.37 2838.6 2132.29C2910.47 2094.96 2959.36 2019.93 2959.36 1933.38H2959.51C2959.51 1930.84 2959.51 1928.37 2959.36 1925.9V1651H3166V1895.98Z" fill="#5F5F5F"/>
<path d="M4289.41 2258.48V2699H4496V1967.42C4496 1966.3 4496 1965.18 4496 1964.05C4496 1791.18 4355.73 1651 4182.74 1651C4009.76 1651 3981.01 1704.78 3924.5 1786.77C3867.99 1704.78 3773.45 1651 3666.26 1651C3496.27 1651 3357.94 1786.32 3353.15 1955C3353.07 1957.99 3353 1960.99 3353 1964.05V2699H3559.59V2258.48L3559.97 1972.28C3559.97 1900.62 3618.2 1842.5 3690.06 1842.5C3761.92 1842.5 3820.16 1900.62 3820.16 1972.28L3821.28 2236.19V2699H4027.87V2236.19L4028.99 1972.28C4028.99 1900.62 4087.23 1842.5 4159.09 1842.5C4230.95 1842.5 4289.18 1900.62 4289.18 1972.28L4289.56 2258.48H4289.41Z" fill="#5F5F5F"/>
<path d="M4683 2409.51C4683 2558.52 4795.62 2681.27 4940.41 2697.2C4950.96 2698.4 4961.73 2699 4972.59 2699H5554V2492.54H5238.75L5033.94 2491.79C4974.83 2491.79 4926.94 2443.92 4926.94 2384.82C4926.94 2325.73 4974.83 2277.86 5033.94 2277.86H5554V2071.4H5033.94C4974.83 2071.4 4926.94 2023.52 4926.94 1964.43C4926.94 1905.33 4974.83 1857.46 5033.94 1857.46H5554V1651H4972.59C4961.73 1651 4950.96 1651.6 4940.41 1652.8C4795.62 1668.8 4683 1791.48 4683 1940.49C4683 2036.91 4730.22 2122.41 4802.8 2175C4730.22 2227.59 4683 2313.01 4683 2409.51Z" fill="#5F5F5F"/>
<path d="M6691.93 1651V2631.94C6691.93 2668.99 6661.91 2699 6624.86 2699C6607.05 2699 6589.98 2691.96 6577.41 2679.39L6447.63 2549.61L5985.3 2124.7V2699H5741V1733.11C5741 1687.75 5777.75 1651 5823.11 1651C5844.89 1651 5865.77 1659.68 5881.19 1675.03L5985.37 1779.21L6447.7 2204.12V1651H6692H6691.93Z" fill="#5F5F5F"/>
<path d="M7713 1651V1857.46H7399.6V2699H7193.15V1857.46H6879V1651H7713Z" fill="#5F5F5F"/>
<path d="M8120.28 2655.03C8054.24 2625.09 8001.91 2584.46 7963.35 2533.12C7924.78 2481.79 7903.74 2424.92 7900 2362.51H8158.77C8163.64 2401.72 8182.88 2434.05 8216.58 2459.71C8250.19 2485.38 8292.05 2498.25 8342.22 2498.25C8392.38 2498.25 8429.45 2488.45 8456.93 2468.92C8484.48 2449.39 8498.18 2424.32 8498.18 2393.71C8498.18 2363.1 8481.41 2335.94 8447.72 2319.48C8414.1 2302.94 8360.56 2284.9 8287.18 2265.37C8211.33 2247.04 8149.26 2228.03 8100.97 2208.5C8052.6 2188.97 8010.97 2158.96 7976.15 2118.63C7941.26 2078.29 7923.89 2023.89 7923.89 1955.34C7923.89 1886.8 7940.06 1847.81 7972.48 1801.34C8004.9 1754.87 8051.4 1718.2 8111.97 1691.26C8172.55 1664.39 8243.76 1651 8325.74 1651C8446.82 1651 8543.48 1681.23 8615.66 1741.77C8687.84 1802.31 8727.6 1883.95 8734.94 1986.62H8488.97C8485.3 1946.29 8468.53 1914.19 8438.58 1890.39C8408.56 1866.52 8368.5 1854.62 8318.41 1854.62C8268.31 1854.62 8236.12 1863.15 8211.03 1880.29C8185.95 1897.35 8173.37 1921.22 8173.37 1951.75C8173.37 1982.28 8190.52 2011.99 8224.74 2029.73C8259.03 2047.39 8312.27 2065.5 8384.45 2083.83C8457.82 2102.09 8518.4 2121.17 8566.1 2140.7C8613.79 2160.23 8655.05 2190.47 8689.86 2231.47C8724.76 2272.41 8742.8 2326.51 8744 2393.79C8744 2452.45 8727.83 2505.06 8695.41 2551.53C8662.98 2597.93 8616.49 2634.37 8555.91 2660.64C8495.34 2686.9 8424.73 2700 8344.01 2700C8263.3 2700 8186.18 2685.03 8120.21 2655.1L8120.28 2655.03Z" fill="#5F5F5F"/>
</svg>
