<svg width="119" height="32" viewBox="0 0 119 32" fill="none" xmlns="http://www.w3.org/2000/svg">
<g clip-path="url(#clip0_2408_16018)">
<path d="M13.6655 9.5C14.9859 8.54661 15.8449 6.9965 15.8449 5.24839C15.8449 2.5469 13.7962 0.322769 11.1622 0.0325482C10.9703 0.0108494 10.7742 0 10.5769 0H0V3.74304H9.46064C10.536 3.74304 11.4072 4.61099 11.4072 5.68237C11.4072 6.75375 10.536 7.6217 9.46064 7.6217H0V11.3647H9.46064C10.536 11.3647 11.4072 12.2327 11.4072 13.3041C11.4072 14.3754 10.536 15.2434 9.46064 15.2434L5.73492 15.257H0V19H10.5769C10.7742 19 10.9703 18.9892 11.1622 18.9675C13.7962 18.6772 15.8449 16.4531 15.8449 13.7516C15.8449 11.0501 14.9859 10.4534 13.6655 9.5Z" fill="#FFCC01"/>
<path d="M34.9704 11.1342C34.9704 15.478 31.4625 19 27.1024 19C22.7424 19 19.248 15.478 19.248 11.1342V0H23.0051C23.0051 0 23.0051 11.7011 23.0051 11.7038C23.1439 13.7258 25.0116 15.257 27.1024 15.257C29.1933 15.257 31.095 13.6729 31.2134 11.6102C31.3713 8.85853 31.2134 0 31.2134 0H34.9704V11.1342Z" fill="#FFCC01"/>
<path d="M55.4027 11.0135V19H59.1597V5.73662C59.1597 5.71627 59.1597 5.69593 59.1597 5.67559C59.1597 2.54147 56.6088 0 53.4629 0C50.3171 0 49.7944 0.975089 48.7666 2.46146C47.7389 0.975089 46.0196 0 44.0703 0C40.979 0 38.4634 2.45332 38.3763 5.51149C38.3749 5.56574 38.3735 5.61999 38.3735 5.67559V19H42.1306V11.0135L42.1374 5.82477C42.1374 4.52555 43.1964 3.47181 44.5032 3.47181C45.81 3.47181 46.8691 4.52555 46.8691 5.82477L46.8895 10.6094V19H50.6465V10.6094L50.6669 5.82477C50.6669 4.52555 51.726 3.47181 53.0328 3.47181C54.3396 3.47181 55.3986 4.52555 55.3986 5.82477L55.4054 11.0135H55.4027Z" fill="#FFCC01"/>
<path d="M79.5513 5.67559C79.5513 6.35368 79.4315 7.00464 79.2124 7.60814C79.211 7.61221 79.2097 7.61763 79.2069 7.6217C78.4093 9.797 76.3143 11.3512 73.8545 11.3512H68.1645V7.60814H73.5687C74.64 7.60814 75.5084 6.7429 75.5084 5.67559C75.5084 4.60828 74.64 3.74304 73.5687 3.74304H66.32V19H62.563V0H73.7252C73.7688 0 73.811 0 73.8545 0C77.0004 0 79.5513 2.54147 79.5513 5.67559Z" fill="#FFCC01"/>
<path d="M99.9424 5.67559C99.9424 6.35368 99.8227 7.00464 99.6035 7.60814C99.6021 7.61221 99.6008 7.61763 99.5981 7.6217C98.8004 9.797 96.7054 11.3512 94.2456 11.3512H88.5556V7.60814H93.9598C95.0311 7.60814 95.8995 6.7429 95.8995 5.67559C95.8995 4.60828 95.0311 3.74304 93.9598 3.74304H86.7111V19H82.9541V0H94.1163C94.1599 0 94.2021 0 94.2456 0C97.3915 0 99.9424 2.54147 99.9424 5.67559Z" fill="#FFCC01"/>
<path d="M119 4.44147C119 8.12213 116.482 11.2088 113.047 12.0483V19H109.29V12.0483C105.856 11.2088 103.346 8.12213 103.346 4.44147V0H107.103V4.81442C107.1 4.84968 107.104 4.8863 107.103 4.92291C107.1 4.98801 107.103 5.0531 107.103 5.11956C107.103 6.68729 107.983 8.04889 109.29 8.72562C109.852 9.0172 110.491 9.1813 111.169 9.1813C111.847 9.1813 112.485 9.0172 113.047 8.72562C114.354 8.04889 115.243 6.68865 115.243 5.11956H115.246C115.246 5.07345 115.246 5.02869 115.243 4.98394V0H119V4.44147Z" fill="#FFCC01"/>
</g>
<path d="M117.494 30.5762L116.062 28.0472H115.448V30.5762H114.146V24.0862H116.583C117.085 24.0862 117.512 24.1761 117.866 24.3558C118.219 24.5294 118.482 24.768 118.656 25.0718C118.836 25.3693 118.926 25.704 118.926 26.076C118.926 26.5037 118.802 26.8911 118.554 27.2382C118.306 27.5792 117.937 27.8147 117.447 27.9449L119 30.5762H117.494ZM115.448 27.0709H116.536C116.889 27.0709 117.153 26.9872 117.326 26.8198C117.5 26.6462 117.587 26.4076 117.587 26.1039C117.587 25.8063 117.5 25.577 117.326 25.4158C117.153 25.2484 116.889 25.1648 116.536 25.1648H115.448V27.0709Z" fill="#5F5F5F"/>
<path d="M110.499 25.1369V26.764H112.685V27.7961H110.499V29.5163H112.963V30.5762H109.198V24.0769H112.963V25.1369H110.499Z" fill="#5F5F5F"/>
<path d="M108.273 26.0946C108.273 26.4417 108.19 26.7671 108.022 27.0709C107.861 27.3746 107.604 27.6194 107.25 27.8054C106.903 27.9914 106.463 28.0843 105.93 28.0843H104.842V30.5762H103.541V24.0862H105.93C106.432 24.0862 106.86 24.173 107.213 24.3465C107.567 24.5201 107.83 24.7587 108.004 25.0625C108.183 25.3662 108.273 25.7102 108.273 26.0946ZM105.874 27.0337C106.234 27.0337 106.5 26.9531 106.674 26.7919C106.848 26.6246 106.934 26.3921 106.934 26.0946C106.934 25.4623 106.581 25.1462 105.874 25.1462H104.842V27.0337H105.874Z" fill="#5F5F5F"/>
<path d="M100.116 30.641C99.6637 30.641 99.2546 30.5635 98.8889 30.4086C98.5293 30.2536 98.2442 30.0305 98.0334 29.7391C97.8227 29.4478 97.7142 29.1038 97.708 28.707H99.1027C99.1213 28.9736 99.2143 29.1843 99.3817 29.3393C99.5552 29.4943 99.7908 29.5718 100.088 29.5718C100.392 29.5718 100.631 29.5005 100.804 29.3579C100.978 29.2091 101.065 29.017 101.065 28.7814C101.065 28.5893 101.006 28.4312 100.888 28.3072C100.77 28.1832 100.621 28.0872 100.442 28.019C100.268 27.9446 100.026 27.864 99.7164 27.7772C99.2949 27.6533 98.9509 27.5324 98.6843 27.4146C98.424 27.2906 98.1977 27.1078 98.0056 26.866C97.8196 26.6181 97.7266 26.2895 97.7266 25.8804C97.7266 25.4961 97.8227 25.1614 98.0148 24.8762C98.207 24.5911 98.4766 24.3741 98.8238 24.2254C99.1709 24.0704 99.5676 23.9929 100.014 23.9929C100.683 23.9929 101.226 24.1572 101.641 24.4857C102.063 24.808 102.295 25.2606 102.338 25.8432H100.907C100.894 25.6201 100.798 25.4372 100.618 25.2946C100.445 25.1459 100.212 25.0715 99.9209 25.0715C99.6668 25.0715 99.4622 25.1366 99.3073 25.2668C99.1585 25.3969 99.0841 25.586 99.0841 25.8339C99.0841 26.0075 99.1399 26.1532 99.2515 26.2709C99.3693 26.3825 99.5118 26.4755 99.6792 26.5499C99.8528 26.6181 100.095 26.6987 100.404 26.7916C100.826 26.9156 101.17 27.0396 101.437 27.1636C101.703 27.2875 101.932 27.4735 102.125 27.7214C102.317 27.9694 102.413 28.2948 102.413 28.6977C102.413 29.0449 102.323 29.3672 102.143 29.6647C101.963 29.9623 101.7 30.2009 101.353 30.3807C101.006 30.5543 100.594 30.641 100.116 30.641Z" fill="#5F5F5F"/>
<path d="M93.587 30.641C92.9795 30.641 92.4217 30.4985 91.9134 30.2133C91.4051 29.9282 91.0021 29.5346 90.7046 29.0325C90.4071 28.5242 90.2583 27.9508 90.2583 27.3123C90.2583 26.6801 90.4071 26.1129 90.7046 25.6108C91.0021 25.1025 91.4051 24.7058 91.9134 24.4206C92.4217 24.1355 92.9795 23.9929 93.587 23.9929C94.2007 23.9929 94.7586 24.1355 95.2607 24.4206C95.769 24.7058 96.1688 25.1025 96.4601 25.6108C96.7576 26.1129 96.9064 26.6801 96.9064 27.3123C96.9064 27.9508 96.7576 28.5242 96.4601 29.0325C96.1688 29.5346 95.769 29.9282 95.2607 30.2133C94.7524 30.4985 94.1945 30.641 93.587 30.641ZM93.587 29.4788C93.9775 29.4788 94.3216 29.392 94.6191 29.2184C94.9166 29.0387 95.1491 28.7845 95.3165 28.456C95.4838 28.1275 95.5675 27.7462 95.5675 27.3123C95.5675 26.8784 95.4838 26.5003 95.3165 26.178C95.1491 25.8494 94.9166 25.5984 94.6191 25.4248C94.3216 25.2513 93.9775 25.1645 93.587 25.1645C93.1965 25.1645 92.8494 25.2513 92.5456 25.4248C92.2481 25.5984 92.0156 25.8494 91.8483 26.178C91.6809 26.5003 91.5972 26.8784 91.5972 27.3123C91.5972 27.7462 91.6809 28.1275 91.8483 28.456C92.0156 28.7845 92.2481 29.0387 92.5456 29.2184C92.8494 29.392 93.1965 29.4788 93.587 29.4788Z" fill="#5F5F5F"/>
<path d="M87.965 30.5762L86.5331 28.0472H85.9194V30.5762H84.6177V24.0862H87.0538C87.5559 24.0862 87.9836 24.1761 88.3369 24.3558C88.6902 24.5294 88.9537 24.768 89.1272 25.0718C89.307 25.3693 89.3969 25.704 89.3969 26.076C89.3969 26.5037 89.2729 26.8911 89.025 27.2382C88.777 27.5792 88.4082 27.8147 87.9185 27.9449L89.4713 30.5762H87.965ZM85.9194 27.0709H87.0073C87.3606 27.0709 87.624 26.9872 87.7976 26.8198C87.9712 26.6462 88.058 26.4076 88.058 26.1039C88.058 25.8063 87.9712 25.577 87.7976 25.4158C87.624 25.2484 87.3606 25.1648 87.0073 25.1648H85.9194V27.0709Z" fill="#5F5F5F"/>
<path d="M83.6936 26.0946C83.6936 26.4417 83.61 26.7671 83.4426 27.0709C83.2814 27.3746 83.0242 27.6194 82.6709 27.8054C82.3237 27.9914 81.8836 28.0843 81.3505 28.0843H80.2627V30.5762H78.9609V24.0862H81.3505C81.8526 24.0862 82.2803 24.173 82.6337 24.3465C82.987 24.5201 83.2504 24.7587 83.424 25.0625C83.6038 25.3662 83.6936 25.7102 83.6936 26.0946ZM81.2947 27.0337C81.6543 27.0337 81.9208 26.9531 82.0944 26.7919C82.2679 26.6246 82.3547 26.3921 82.3547 26.0946C82.3547 25.4623 82.0014 25.1462 81.2947 25.1462H80.2627V27.0337H81.2947Z" fill="#5F5F5F"/>
<path d="M74.5016 30.5761L73.7949 29.8787C73.1936 30.418 72.4591 30.6876 71.5913 30.6876C71.114 30.6876 70.6925 30.607 70.3267 30.4459C69.9672 30.2785 69.6883 30.0461 69.4899 29.7485C69.2916 29.4448 69.1924 29.0946 69.1924 28.6978C69.1924 28.2701 69.3133 27.8858 69.555 27.5449C69.7968 27.204 70.1532 26.9281 70.6243 26.7174C70.4569 26.5128 70.336 26.3175 70.2617 26.1316C70.1873 25.9394 70.1501 25.7349 70.1501 25.5179C70.1501 25.2204 70.2276 24.9538 70.3825 24.7183C70.5375 24.4765 70.7576 24.2875 71.0427 24.1511C71.334 24.0147 71.6719 23.9465 72.0562 23.9465C72.4467 23.9465 72.7814 24.0209 73.0604 24.1697C73.3393 24.3185 73.547 24.5168 73.6833 24.7648C73.8197 25.0127 73.8786 25.2886 73.86 25.5923H72.5955C72.6017 25.3877 72.5521 25.2328 72.4467 25.1274C72.3413 25.0158 72.1988 24.96 72.019 24.96C71.8454 24.96 71.6998 25.0127 71.582 25.1181C71.4704 25.2173 71.4146 25.3474 71.4146 25.5086C71.4146 25.6636 71.4611 25.8185 71.5541 25.9735C71.6471 26.1223 71.7989 26.3082 72.0097 26.5314L73.6462 28.1493C73.6586 28.1369 73.6679 28.1245 73.6741 28.1121C73.6803 28.0997 73.6864 28.0873 73.6926 28.0749L74.2226 27.1916H75.5802L74.9293 28.3352C74.8053 28.577 74.672 28.8063 74.5295 29.0233L76.1008 30.5761H74.5016ZM71.6285 29.6091C72.1368 29.6091 72.5862 29.4293 72.9767 29.0698L71.3774 27.4891C70.7762 27.7556 70.4755 28.1338 70.4755 28.6235C70.4755 28.9024 70.5809 29.138 70.7916 29.3301C71.0024 29.5161 71.2813 29.6091 71.6285 29.6091Z" fill="#5F5F5F"/>
<path d="M66.3431 24.0862V25.1369H64.6137V30.5762H63.312V25.1369H61.5825V24.0862H66.3431Z" fill="#5F5F5F"/>
<path d="M54.4736 27.3218C54.4736 26.6834 54.6162 26.1131 54.9013 25.611C55.1927 25.1027 55.5863 24.7091 56.0822 24.4302C56.5843 24.145 57.1453 24.0024 57.7651 24.0024C58.4904 24.0024 59.1258 24.1884 59.6712 24.5603C60.2167 24.9322 60.598 25.4467 60.8149 26.1038H59.3179C59.1692 25.7939 58.9584 25.5614 58.6857 25.4064C58.4191 25.2515 58.1092 25.174 57.7559 25.174C57.3777 25.174 57.0399 25.2639 56.7424 25.4436C56.451 25.6172 56.2217 25.8652 56.0543 26.1875C55.8931 26.5098 55.8126 26.8879 55.8126 27.3218C55.8126 27.7496 55.8931 28.1277 56.0543 28.4562C56.2217 28.7785 56.451 29.0296 56.7424 29.2094C57.0399 29.3829 57.3777 29.4697 57.7559 29.4697C58.1092 29.4697 58.4191 29.3922 58.6857 29.2373C58.9584 29.0761 59.1692 28.8405 59.3179 28.5306H60.8149C60.598 29.1939 60.2167 29.7115 59.6712 30.0834C59.132 30.4491 58.4966 30.632 57.7651 30.632C57.1453 30.632 56.5843 30.4925 56.0822 30.2135C55.5863 29.9284 55.1927 29.5348 54.9013 29.0327C54.6162 28.5306 54.4736 27.9603 54.4736 27.3218Z" fill="#5F5F5F"/>
<path d="M53.5034 24.0862V30.5762H52.2017V24.0862H53.5034Z" fill="#5F5F5F"/>
<path d="M47.8053 24.0862C48.4872 24.0862 49.0854 24.2195 49.5999 24.486C50.1206 24.7525 50.5204 25.1338 50.7993 25.6297C51.0845 26.1194 51.227 26.6896 51.227 27.3405C51.227 27.9914 51.0845 28.5616 50.7993 29.0513C50.5204 29.5348 50.1206 29.9099 49.5999 30.1764C49.0854 30.443 48.4872 30.5762 47.8053 30.5762H45.5366V24.0862H47.8053ZM47.7589 29.4698C48.4407 29.4698 48.9676 29.2838 49.3395 28.9119C49.7115 28.54 49.8974 28.0162 49.8974 27.3405C49.8974 26.6648 49.7115 26.138 49.3395 25.7598C48.9676 25.3755 48.4407 25.1834 47.7589 25.1834H46.8383V29.4698H47.7589Z" fill="#5F5F5F"/>
<path d="M41.8896 25.1369V26.764H44.0747V27.7961H41.8896V29.5163H44.3536V30.5762H40.5879V24.0769H44.3536V25.1369H41.8896Z" fill="#5F5F5F"/>
<path d="M37.9786 30.5762L36.5467 28.0472H35.9331V30.5762H34.6313V24.0862H37.0674C37.5695 24.0862 37.9972 24.1761 38.3506 24.3558C38.7039 24.5294 38.9673 24.768 39.1409 25.0718C39.3207 25.3693 39.4106 25.704 39.4106 26.076C39.4106 26.5037 39.2866 26.8911 39.0386 27.2382C38.7907 27.5792 38.4219 27.8147 37.9322 27.9449L39.4849 30.5762H37.9786ZM35.9331 27.0709H37.021C37.3743 27.0709 37.6377 26.9872 37.8113 26.8198C37.9849 26.6462 38.0716 26.4076 38.0716 26.1039C38.0716 25.8063 37.9849 25.577 37.8113 25.4158C37.6377 25.2484 37.3743 25.1648 37.021 25.1648H35.9331V27.0709Z" fill="#5F5F5F"/>
<path d="M33.7078 26.0946C33.7078 26.4417 33.6241 26.7671 33.4568 27.0709C33.2956 27.3746 33.0384 27.6194 32.685 27.8054C32.3379 27.9914 31.8978 28.0843 31.3647 28.0843H30.2768V30.5762H28.9751V24.0862H31.3647C31.8668 24.0862 32.2945 24.173 32.6478 24.3465C33.0012 24.5201 33.2646 24.7587 33.4382 25.0625C33.6179 25.3662 33.7078 25.7102 33.7078 26.0946ZM31.3089 27.0337C31.6684 27.0337 31.935 26.9531 32.1085 26.7919C32.2821 26.6246 32.3689 26.3921 32.3689 26.0946C32.3689 25.4623 32.0156 25.1462 31.3089 25.1462H30.2768V27.0337H31.3089Z" fill="#5F5F5F"/>
<path d="M25.8212 29.2095L24.7333 31.8222H23.8965L24.5009 29.2095H25.8212Z" fill="#5F5F5F"/>
<path d="M23.112 30.5762H21.8102L18.8628 26.1225V30.5762H17.561V24.0769H18.8628L21.8102 28.54V24.0769H23.112V30.5762Z" fill="#5F5F5F"/>
<path d="M14.9518 30.5762L13.5199 28.0472H12.9062V30.5762H11.6045V24.0862H14.0406C14.5427 24.0862 14.9704 24.1761 15.3237 24.3558C15.677 24.5294 15.9405 24.768 16.1141 25.0718C16.2938 25.3693 16.3837 25.704 16.3837 26.076C16.3837 26.5037 16.2597 26.8911 16.0118 27.2382C15.7638 27.5792 15.395 27.8147 14.9053 27.9449L16.4581 30.5762H14.9518ZM12.9062 27.0709H13.9941C14.3474 27.0709 14.6109 26.9872 14.7844 26.8198C14.958 26.6462 15.0448 26.4076 15.0448 26.1039C15.0448 25.8063 14.958 25.577 14.7844 25.4158C14.6109 25.2484 14.3474 25.1648 13.9941 25.1648H12.9062V27.0709Z" fill="#5F5F5F"/>
<path d="M8.92822 29.3396H6.34335L5.91564 30.5762H4.54883L6.88264 24.0769H8.39823L10.732 30.5762H9.35593L8.92822 29.3396ZM8.57489 28.2982L7.63578 25.5832L6.69668 28.2982H8.57489Z" fill="#5F5F5F"/>
<path d="M1.30173 25.1369V26.764H3.48677V27.7961H1.30173V29.5163H3.76572V30.5762H0V24.0769H3.76572V25.1369H1.30173Z" fill="#5F5F5F"/>
<defs>
<clipPath id="clip0_2408_16018">
<rect width="119" height="19" fill="white"/>
</clipPath>
</defs>
</svg>
