<svg width="234" height="63" viewBox="0 0 234 63" fill="none" xmlns="http://www.w3.org/2000/svg">
<path d="M36.375 49.9961C36.375 51.1914 36.0117 52.4688 35.2852 53.8281C34.582 55.1875 33.4922 56.4883 32.0156 57.7305C30.5625 58.9492 28.7227 59.9336 26.4961 60.6836C24.2695 61.4336 21.7617 61.8086 18.9727 61.8086C13.043 61.8086 8.41406 60.0859 5.08594 56.6406C1.75781 53.1719 0.09375 48.5312 0.09375 42.7188C0.09375 38.7812 0.855469 35.3008 2.37891 32.2773C3.90234 29.2539 6.10547 26.9219 8.98828 25.2812C11.8711 23.6172 15.3164 22.7852 19.3242 22.7852C21.8086 22.7852 24.082 23.1484 26.1445 23.875C28.2305 24.6016 29.9883 25.5391 31.418 26.6875C32.8711 27.8359 33.9727 29.0664 34.7227 30.3789C35.4961 31.668 35.8828 32.875 35.8828 34C35.8828 35.1484 35.4492 36.1211 34.582 36.918C33.7383 37.7148 32.707 38.1133 31.4883 38.1133C30.6914 38.1133 30.0234 37.9141 29.4844 37.5156C28.9688 37.0938 28.3828 36.4258 27.7266 35.5117C26.5547 33.7305 25.3242 32.3945 24.0352 31.5039C22.7695 30.6133 21.1523 30.168 19.1836 30.168C16.3477 30.168 14.0625 31.2812 12.3281 33.5078C10.5938 35.7109 9.72656 38.7344 9.72656 42.5781C9.72656 44.3828 9.94922 46.0469 10.3945 47.5703C10.8398 49.0703 11.4844 50.3594 12.3281 51.4375C13.1719 52.4922 14.1914 53.3008 15.3867 53.8633C16.582 54.4023 17.8945 54.6719 19.3242 54.6719C21.2461 54.6719 22.8867 54.2266 24.2461 53.3359C25.6289 52.4453 26.8477 51.0859 27.9023 49.2578C28.4883 48.1797 29.1211 47.3359 29.8008 46.7266C30.4805 46.1172 31.3125 45.8125 32.2969 45.8125C33.4688 45.8125 34.4414 46.2578 35.2148 47.1484C35.9883 48.0391 36.375 48.9883 36.375 49.9961ZM52.3359 14.418V28.6562C53.5547 27.25 54.7383 26.1367 55.8867 25.3164C57.0586 24.4961 58.3477 23.8867 59.7539 23.4883C61.1602 23.0664 62.6719 22.8555 64.2891 22.8555C66.7266 22.8555 68.8828 23.3711 70.7578 24.4023C72.6562 25.4336 74.1445 26.9336 75.2227 28.9023C75.9023 30.0508 76.3594 31.3398 76.5938 32.7695C76.8281 34.1758 76.9453 35.8047 76.9453 37.6562V56.043C76.9453 57.9648 76.5 59.418 75.6094 60.4023C74.7422 61.3867 73.582 61.8789 72.1289 61.8789C68.9648 61.8789 67.3828 59.9336 67.3828 56.043V39.8359C67.3828 36.7656 66.9258 34.4102 66.0117 32.7695C65.0977 31.1055 63.3633 30.2734 60.8086 30.2734C59.0977 30.2734 57.5508 30.7656 56.168 31.75C54.8086 32.7109 53.7891 34.0352 53.1094 35.7227C52.5938 37.1523 52.3359 39.6953 52.3359 43.3516V56.043C52.3359 57.9414 51.9023 59.3945 51.0352 60.4023C50.1914 61.3867 49.0078 61.8789 47.4844 61.8789C44.3203 61.8789 42.7383 59.9336 42.7383 56.043V14.418C42.7383 12.4727 43.1484 11.0195 43.9688 10.0586C44.8125 9.07422 45.9844 8.58203 47.4844 8.58203C49.0078 8.58203 50.1914 9.07422 51.0352 10.0586C51.9023 11.043 52.3359 12.4961 52.3359 14.418ZM124.14 61H116.076C115.428 61 113.34 61.216 113.34 60.136C113.34 58.12 118.884 50.92 118.884 42.712C118.884 39.472 115.788 38.248 112.548 38.248C105.996 38.248 95.5556 39.4 95.5556 47.608C95.5556 53.296 100.236 59.416 100.236 60.496C100.236 60.928 99.8036 61 98.8676 61H88.5716C84.8996 61 83.8916 54.52 83.8916 45.16C83.8916 14.344 105.276 0.0159955 108.444 0.0159955C110.82 0.0159955 129.396 10.312 129.396 43.72C129.396 62.944 126.3 61 124.14 61ZM108.732 12.328C104.844 12.328 97.1396 23.776 97.1396 29.032C97.1396 29.896 97.6436 30.4 98.5076 30.4C99.8036 30.4 106.788 28.528 113.124 28.528C115.644 28.528 116.796 28.168 116.796 26.152C116.796 21.688 111.468 12.328 108.732 12.328ZM155.621 46.816V43.648C155.621 41.128 156.053 38.104 152.597 38.104C148.349 38.104 143.885 41.704 143.885 46.096C143.885 50.128 147.413 52.504 151.229 52.504C155.477 52.504 155.621 50.344 155.621 46.816ZM134.165 47.752C134.165 38.68 143.093 32.416 151.157 31.048C153.245 30.688 154.901 30.328 154.901 27.952C154.901 24.28 151.085 22.336 147.917 22.336C140.573 22.336 141.653 28.528 140.069 28.528C137.765 28.528 135.245 25.72 135.245 22.624C135.245 17.296 141.221 13.84 147.845 13.84C150.149 13.84 160.013 13.768 163.685 23.848C165.197 28.024 165.341 49.336 165.341 51.856C165.341 55.024 165.917 56.896 165.917 59.344C165.917 60.856 159.149 61 152.741 61C135.389 61 134.165 52.072 134.165 47.752ZM173.379 23.6992H175.664V20.8164C175.664 17.8164 176.039 15.4375 176.789 13.6797C177.562 11.8984 178.852 10.6094 180.656 9.8125C182.484 8.99219 184.98 8.58203 188.145 8.58203C193.746 8.58203 196.547 9.95312 196.547 12.6953C196.547 13.5859 196.254 14.3477 195.668 14.9805C195.082 15.6133 194.391 15.9297 193.594 15.9297C193.219 15.9297 192.574 15.8594 191.66 15.7188C190.746 15.5781 189.973 15.5078 189.34 15.5078C187.605 15.5078 186.492 16.0234 186 17.0547C185.508 18.0625 185.262 19.5156 185.262 21.4141V23.6992H187.617C191.273 23.6992 193.102 24.8008 193.102 27.0039C193.102 28.5742 192.609 29.5703 191.625 29.9922C190.664 30.4141 189.328 30.625 187.617 30.625H185.262V56.043C185.262 57.9414 184.805 59.3945 183.891 60.4023C183 61.3867 181.84 61.8789 180.41 61.8789C179.051 61.8789 177.914 61.3867 177 60.4023C176.109 59.3945 175.664 57.9414 175.664 56.043V30.625H173.027C171.598 30.625 170.496 30.3086 169.723 29.6758C168.949 29.0195 168.562 28.1758 168.562 27.1445C168.562 24.8477 170.168 23.6992 173.379 23.6992ZM233.074 42.3672C233.074 45.2266 232.629 47.8633 231.738 50.2773C230.848 52.6914 229.559 54.7656 227.871 56.5C226.184 58.2344 224.168 59.5703 221.824 60.5078C219.48 61.4219 216.844 61.8789 213.914 61.8789C211.008 61.8789 208.395 61.4102 206.074 60.4727C203.754 59.5352 201.738 58.1992 200.027 56.4648C198.34 54.707 197.051 52.6445 196.16 50.2773C195.293 47.8867 194.859 45.25 194.859 42.3672C194.859 39.4609 195.305 36.8008 196.195 34.3867C197.086 31.9727 198.363 29.9102 200.027 28.1992C201.691 26.4883 203.707 25.1758 206.074 24.2617C208.441 23.3242 211.055 22.8555 213.914 22.8555C216.82 22.8555 219.457 23.3242 221.824 24.2617C224.191 25.1992 226.219 26.5352 227.906 28.2695C229.594 30.0039 230.871 32.0664 231.738 34.457C232.629 36.8477 233.074 39.4844 233.074 42.3672ZM223.441 42.3672C223.441 38.4531 222.574 35.4062 220.84 33.2266C219.129 31.0469 216.82 29.957 213.914 29.957C212.039 29.957 210.387 30.4492 208.957 31.4336C207.527 32.3945 206.426 33.8242 205.652 35.7227C204.879 37.6211 204.492 39.8359 204.492 42.3672C204.492 44.875 204.867 47.0664 205.617 48.9414C206.391 50.8164 207.48 52.2578 208.887 53.2656C210.316 54.25 211.992 54.7422 213.914 54.7422C216.82 54.7422 219.129 53.6523 220.84 51.4727C222.574 49.2695 223.441 46.2344 223.441 42.3672Z" fill="#1A1349"/>
</svg>
