<svg width="476" height="120" viewBox="0 0 476 120" fill="none" xmlns="http://www.w3.org/2000/svg">
<mask id="mask0_894_425" style="mask-type:luminance" maskUnits="userSpaceOnUse" x="0" y="0" width="120" height="120">
<path d="M90 0H30C13.4315 0 0 13.4315 0 30V90C0 106.569 13.4315 120 30 120H90C106.569 120 120 106.569 120 90V30C120 13.4315 106.569 0 90 0Z" fill="white"/>
</mask>
<g mask="url(#mask0_894_425)">
<path d="M90 0H30C13.4315 0 0 13.4315 0 30V90C0 106.569 13.4315 120 30 120H90C106.569 120 120 106.569 120 90V30C120 13.4315 106.569 0 90 0Z" fill="url(#paint0_linear_894_425)"/>
<path d="M94.694 95.162C92.216 98.23 88.558 100 84.9 100C80.77 100 77.23 97.876 74.634 94.336C57.878 105.9 34.514 98.82 25.546 81.238C17.404 65.072 19.528 46.31 30.62 31.442C40.414 18.226 55.872 16.456 68.262 16.456C69.088 16.456 70.032 16.574 70.858 16.574C74.398 16.574 86.67 17.4 91.98 25.306C94.93 29.554 95.166 34.982 92.924 41.236C90.8 46.9 83.366 46.9 80.888 46.9C75.932 46.9 70.976 45.838 65.902 45.956C62.48 45.956 58.94 47.608 56.108 49.614C50.208 53.626 46.314 60.824 49.618 67.786C52.922 74.748 61.182 76.4 67.554 72.86C67.2 72.86 67.082 72.86 67.082 72.86C60.946 72.506 54.456 67.196 55.282 60.588C56.58 51.03 69.796 50.086 77.112 50.086C81.242 50.086 85.49 50.558 87.732 51.266C91.39 52.328 94.104 53.272 95.874 59.054C99.296 70.736 98.116 91.032 94.694 95.162Z" fill="#F2EAF5"/>
</g>
<path d="M170.636 50.125C170.239 48.7424 169.68 47.5208 168.96 46.4602C168.241 45.3807 167.36 44.4716 166.318 43.733C165.295 42.9754 164.121 42.3977 162.795 42C161.489 41.6023 160.04 41.4034 158.449 41.4034C155.475 41.4034 152.862 42.142 150.608 43.6193C148.373 45.0966 146.631 47.2462 145.381 50.0682C144.131 52.8712 143.506 56.2992 143.506 60.3523C143.506 64.4053 144.121 67.8523 145.352 70.6932C146.583 73.5341 148.326 75.7027 150.58 77.1989C152.833 78.6761 155.494 79.4148 158.562 79.4148C161.347 79.4148 163.723 78.9223 165.693 77.9375C167.682 76.9337 169.197 75.5227 170.239 73.7045C171.299 71.8864 171.83 69.7367 171.83 67.2557L174.33 67.625H159.33V58.3636H183.676V65.6932C183.676 70.8068 182.597 75.2008 180.438 78.875C178.278 82.5303 175.305 85.3523 171.517 87.3409C167.729 89.3106 163.392 90.2955 158.506 90.2955C153.051 90.2955 148.259 89.0928 144.131 86.6875C140.002 84.2633 136.782 80.8258 134.472 76.375C132.18 71.9053 131.034 66.6023 131.034 60.4659C131.034 55.75 131.716 51.5455 133.08 47.8523C134.462 44.1402 136.394 40.9962 138.875 38.4205C141.356 35.8447 144.244 33.8845 147.54 32.5398C150.835 31.1951 154.405 30.5227 158.25 30.5227C161.545 30.5227 164.614 31.0057 167.455 31.9716C170.295 32.9186 172.814 34.2633 175.011 36.0057C177.227 37.7481 179.036 39.822 180.438 42.2273C181.839 44.6136 182.739 47.2462 183.136 50.125H170.636ZM212.575 90.3523C208.087 90.3523 204.223 89.4432 200.984 87.625C197.765 85.7879 195.284 83.1932 193.541 79.8409C191.799 76.4697 190.928 72.483 190.928 67.8807C190.928 63.392 191.799 59.4527 193.541 56.0625C195.284 52.6723 197.736 50.0303 200.899 48.1364C204.081 46.2424 207.812 45.2955 212.092 45.2955C214.971 45.2955 217.651 45.7595 220.132 46.6875C222.632 47.5966 224.81 48.9697 226.666 50.8068C228.541 52.6439 230 54.9545 231.041 57.7386C232.083 60.5038 232.604 63.7424 232.604 67.4545V70.7784H195.757V63.2784H221.212C221.212 61.536 220.833 59.9924 220.075 58.6477C219.318 57.303 218.267 56.2519 216.922 55.4943C215.596 54.7178 214.053 54.3295 212.291 54.3295C210.454 54.3295 208.825 54.7557 207.405 55.608C206.003 56.4413 204.905 57.5682 204.109 58.9886C203.314 60.3902 202.907 61.9527 202.888 63.6761V70.8068C202.888 72.9659 203.286 74.8314 204.081 76.4034C204.895 77.9754 206.041 79.1875 207.518 80.0398C208.996 80.892 210.748 81.3182 212.774 81.3182C214.119 81.3182 215.35 81.1288 216.467 80.75C217.585 80.3712 218.541 79.803 219.337 79.0455C220.132 78.2879 220.738 77.3598 221.155 76.2614L232.348 77C231.78 79.6894 230.615 82.0379 228.854 84.0455C227.111 86.0341 224.857 87.5871 222.092 88.7045C219.346 89.803 216.174 90.3523 212.575 90.3523ZM263.712 45.8636V54.9545H237.433V45.8636H263.712ZM243.399 35.4091H255.501V76.0909C255.501 77.2083 255.672 78.0795 256.013 78.7045C256.354 79.3106 256.827 79.7367 257.433 79.983C258.058 80.2292 258.778 80.3523 259.592 80.3523C260.161 80.3523 260.729 80.3049 261.297 80.2102C261.865 80.0966 262.301 80.0114 262.604 79.9545L264.507 88.9602C263.901 89.1496 263.049 89.3674 261.95 89.6136C260.852 89.8788 259.517 90.0398 257.945 90.0966C255.028 90.2102 252.471 89.822 250.274 88.9318C248.096 88.0417 246.401 86.6591 245.189 84.7841C243.977 82.9091 243.38 80.5417 243.399 77.6818V35.4091ZM271.368 89.5V82.2841L292.732 55.8352V55.5227H272.107V45.8636H307.305V53.733L287.249 79.5284V79.8409H308.044V89.5H271.368ZM328.264 76.9432L328.293 62.4261H330.054L344.031 45.8636H357.923L339.145 67.7955H336.276L328.264 76.9432ZM317.298 89.5V31.3182H329.401V89.5H317.298ZM344.571 89.5L331.73 70.4943L339.798 61.9432L358.747 89.5H344.571ZM363.861 89.5V45.8636H375.963V89.5H363.861ZM369.94 40.2386C368.141 40.2386 366.598 39.642 365.31 38.4489C364.041 37.2367 363.406 35.7879 363.406 34.1023C363.406 32.4356 364.041 31.0057 365.31 29.8125C366.598 28.6004 368.141 27.9943 369.94 27.9943C371.74 27.9943 373.274 28.6004 374.543 29.8125C375.83 31.0057 376.474 32.4356 376.474 34.1023C376.474 35.7879 375.83 37.2367 374.543 38.4489C373.274 39.642 371.74 40.2386 369.94 40.2386ZM405.374 90.3523C400.904 90.3523 397.059 89.4053 393.839 87.5114C390.639 85.5985 388.177 82.947 386.453 79.5568C384.749 76.1667 383.896 72.2652 383.896 67.8523C383.896 63.3826 384.758 59.4621 386.482 56.0909C388.224 52.7008 390.696 50.0587 393.896 48.1648C397.097 46.2519 400.904 45.2955 405.317 45.2955C409.124 45.2955 412.457 45.9867 415.317 47.3693C418.177 48.7519 420.44 50.6932 422.107 53.1932C423.773 55.6932 424.692 58.6288 424.862 62H413.442C413.12 59.822 412.268 58.0701 410.885 56.7443C409.521 55.3996 407.732 54.7273 405.516 54.7273C403.641 54.7273 402.002 55.2386 400.601 56.2614C399.218 57.2652 398.139 58.733 397.362 60.6648C396.586 62.5966 396.197 64.9356 396.197 67.6818C396.197 70.4659 396.576 72.8333 397.334 74.7841C398.11 76.7348 399.199 78.2216 400.601 79.2443C402.002 80.267 403.641 80.7784 405.516 80.7784C406.898 80.7784 408.139 80.4943 409.237 79.9261C410.355 79.358 411.273 78.5341 411.993 77.4545C412.732 76.3561 413.214 75.0398 413.442 73.5057H424.862C424.673 76.839 423.764 79.7746 422.135 82.3125C420.525 84.8314 418.3 86.8011 415.459 88.2216C412.618 89.642 409.256 90.3523 405.374 90.3523ZM443.577 76.9432L443.605 62.4261H445.366L459.344 45.8636H473.236L454.457 67.7955H451.588L443.577 76.9432ZM432.611 89.5V31.3182H444.713V89.5H432.611ZM459.884 89.5L447.043 70.4943L455.111 61.9432L474.06 89.5H459.884Z" fill="url(#paint1_linear_894_425)"/>
<defs>
<linearGradient id="paint0_linear_894_425" x1="-0.0118932" y1="67.3648" x2="114.207" y2="67.3967" gradientUnits="userSpaceOnUse">
<stop stop-color="#7929CA"/>
<stop offset="0.5" stop-color="#3E79A1"/>
<stop offset="1" stop-color="#13B783"/>
</linearGradient>
<linearGradient id="paint1_linear_894_425" x1="131" y1="63.0005" x2="457.5" y2="63.5012" gradientUnits="userSpaceOnUse">
<stop stop-color="#7929CA"/>
<stop offset="0.5" stop-color="#3E79A1"/>
<stop offset="1" stop-color="#13B783"/>
</linearGradient>
</defs>
</svg>
