<svg width="1236" height="512" viewBox="0 0 1236 512" fill="none" xmlns="http://www.w3.org/2000/svg">
<g clip-path="url(#clip0_3200_2232)">
<path d="M256 512C397.385 512 512 397.385 512 256C512 114.615 397.385 0 256 0C114.615 0 0 114.615 0 256C0 397.385 114.615 512 256 512Z" fill="#2353A6"/>
<path d="M387.03 316.8C387.03 316.8 405.34 132.07 283.62 101.91C283.62 101.91 284.42 98.4305 284.26 93.6205C283.78 79.2805 271.86 67.9805 257.51 67.9805H248.27C246.08 67.9805 244.3 69.7605 244.3 71.9505V99.7605C244.3 99.7605 220.06 89.5305 206.06 114.3C206.06 114.3 72.1197 64.4905 66.0297 176.24C64.1697 210.44 68.8797 232.69 132.13 290.96C139.49 297.75 151.1 297.54 157.83 290.12C163.26 284.13 168.68 273.77 172.13 255.94C181.29 208.55 176.44 135.3 109.12 154.15C109.12 154.15 166.75 106.22 190.44 184.31C214.14 262.4 162.43 322.18 274.46 325.42H296.54C296.54 325.42 299.11 402.83 244.98 393.4C203.24 386.13 231.91 358.81 231.91 358.81L227.01 343.06C227.01 343.06 168.77 341.7 180.74 400.82C193.48 463.74 326.15 467.87 377.86 351.54C377.86 351.54 426.33 350.73 446.26 309.26C446.26 309.26 416.1 329.19 387.02 316.8H387.03Z" fill="#F08100"/>
</g>
<path d="M668.126 133.197C667.529 127.181 664.969 122.508 660.445 119.177C655.92 115.846 649.781 114.18 642.025 114.18C636.755 114.18 632.305 114.926 628.676 116.418C625.047 117.859 622.263 119.873 620.324 122.458C618.435 125.043 617.49 127.977 617.49 131.258C617.391 133.992 617.962 136.379 619.205 138.417C620.498 140.455 622.263 142.22 624.5 143.712C626.737 145.153 629.322 146.421 632.256 147.515C635.189 148.559 638.321 149.454 641.652 150.2L655.374 153.481C662.036 154.972 668.151 156.961 673.719 159.447C679.287 161.933 684.109 164.99 688.186 168.619C692.263 172.249 695.42 176.524 697.657 181.446C699.944 186.368 701.112 192.011 701.162 198.374C701.112 207.721 698.726 215.825 694.003 222.685C689.33 229.496 682.568 234.791 673.719 238.57C664.919 242.298 654.305 244.163 641.876 244.163C629.546 244.163 618.808 242.273 609.66 238.495C600.562 234.717 593.452 229.124 588.332 221.716C583.261 214.259 580.601 205.036 580.352 194.049H611.599C611.947 199.17 613.413 203.445 615.999 206.876C618.634 210.256 622.138 212.817 626.513 214.557C630.938 216.247 635.935 217.092 641.503 217.092C646.972 217.092 651.719 216.297 655.746 214.706C659.823 213.115 662.98 210.903 665.217 208.069C667.455 205.235 668.573 201.979 668.573 198.3C668.573 194.869 667.554 191.986 665.516 189.649C663.527 187.312 660.594 185.324 656.716 183.683C652.888 182.043 648.19 180.551 642.621 179.209L625.991 175.033C613.115 171.901 602.948 167.004 595.491 160.342C588.033 153.68 584.33 144.706 584.379 133.42C584.33 124.173 586.79 116.094 591.762 109.184C596.783 102.273 603.669 96.8793 612.419 93.0014C621.169 89.1236 631.112 87.1847 642.249 87.1847C653.584 87.1847 663.477 89.1236 671.929 93.0014C680.43 96.8793 687.043 102.273 691.766 109.184C696.489 116.094 698.925 124.099 699.074 133.197H668.126ZM754.053 175.778V242H722.285V89.2727H753.159V147.664H754.501C757.086 140.903 761.262 135.608 767.029 131.78C772.796 127.902 780.03 125.963 788.73 125.963C796.685 125.963 803.62 127.703 809.536 131.183C815.502 134.614 820.126 139.56 823.407 146.023C826.738 152.437 828.379 160.118 828.329 169.067V242H796.561V174.734C796.61 167.675 794.82 162.181 791.191 158.254C787.612 154.326 782.59 152.362 776.127 152.362C771.802 152.362 767.974 153.282 764.643 155.121C761.362 156.961 758.776 159.646 756.887 163.175C755.048 166.656 754.103 170.857 754.053 175.778ZM926.785 193.229V127.455H958.554V242H928.053V221.194H926.86C924.275 227.906 919.974 233.3 913.958 237.376C907.993 241.453 900.709 243.491 892.108 243.491C884.452 243.491 877.716 241.751 871.899 238.271C866.082 234.791 861.533 229.844 858.252 223.431C855.02 217.018 853.38 209.337 853.33 200.388V127.455H885.098V194.72C885.148 201.482 886.963 206.826 890.542 210.754C894.122 214.681 898.919 216.645 904.935 216.645C908.763 216.645 912.343 215.775 915.674 214.035C919.005 212.245 921.689 209.61 923.728 206.13C925.816 202.65 926.835 198.349 926.785 193.229ZM984.561 242V89.2727H1016.33V146.695H1017.3C1018.69 143.612 1020.7 140.48 1023.34 137.298C1026.02 134.067 1029.5 131.382 1033.78 129.244C1038.11 127.057 1043.47 125.963 1049.89 125.963C1058.24 125.963 1065.95 128.151 1073.01 132.526C1080.07 136.851 1085.71 143.388 1089.93 152.138C1094.16 160.839 1096.27 171.751 1096.27 184.876C1096.27 197.653 1094.21 208.442 1090.08 217.241C1086.01 225.991 1080.44 232.629 1073.38 237.153C1066.37 241.627 1058.51 243.864 1049.81 243.864C1043.65 243.864 1038.4 242.845 1034.08 240.807C1029.8 238.768 1026.3 236.208 1023.56 233.126C1020.83 229.994 1018.74 226.837 1017.3 223.655H1015.88V242H984.561ZM1015.66 184.727C1015.66 191.538 1016.6 197.479 1018.49 202.55C1020.38 207.621 1023.12 211.574 1026.7 214.408C1030.28 217.192 1034.63 218.584 1039.75 218.584C1044.92 218.584 1049.29 217.167 1052.87 214.333C1056.45 211.45 1059.16 207.472 1061 202.401C1062.89 197.281 1063.83 191.389 1063.83 184.727C1063.83 178.115 1062.91 172.298 1061.07 167.277C1059.23 162.256 1056.53 158.328 1052.95 155.494C1049.37 152.661 1044.97 151.244 1039.75 151.244C1034.58 151.244 1030.2 152.611 1026.62 155.345C1023.09 158.08 1020.38 161.957 1018.49 166.979C1016.6 172 1015.66 177.916 1015.66 184.727ZM1149.24 175.778V242H1117.47V89.2727H1148.34V147.664H1149.69C1152.27 140.903 1156.45 135.608 1162.21 131.78C1167.98 127.902 1175.22 125.963 1183.92 125.963C1191.87 125.963 1198.81 127.703 1204.72 131.183C1210.69 134.614 1215.31 139.56 1218.59 146.023C1221.92 152.437 1223.56 160.118 1223.51 169.067V242H1191.75V174.734C1191.8 167.675 1190.01 162.181 1186.38 158.254C1182.8 154.326 1177.78 152.362 1171.31 152.362C1166.99 152.362 1163.16 153.282 1159.83 155.121C1156.55 156.961 1153.96 159.646 1152.07 163.175C1150.23 166.656 1149.29 170.857 1149.24 175.778Z" fill="#2353A6"/>
<path d="M585.274 423V270.273H645.53C657.114 270.273 666.982 272.485 675.136 276.91C683.289 281.285 689.504 287.375 693.779 295.18C698.104 302.936 700.267 311.885 700.267 322.027C700.267 332.169 698.08 341.118 693.705 348.874C689.33 356.629 682.991 362.67 674.688 366.995C666.435 371.32 656.442 373.483 644.71 373.483H606.304V347.606H639.489C645.704 347.606 650.825 346.537 654.852 344.399C658.928 342.212 661.961 339.204 663.95 335.376C665.988 331.498 667.007 327.048 667.007 322.027C667.007 316.956 665.988 312.531 663.95 308.753C661.961 304.925 658.928 301.967 654.852 299.879C650.775 297.741 645.604 296.672 639.34 296.672H617.565V423H585.274ZM750.232 425.163C742.923 425.163 736.411 423.895 730.693 421.359C724.976 418.774 720.452 414.971 717.121 409.95C713.839 404.879 712.199 398.565 712.199 391.008C712.199 384.644 713.367 379.3 715.704 374.974C718.04 370.649 721.222 367.169 725.249 364.534C729.276 361.899 733.85 359.911 738.971 358.568C744.141 357.226 749.56 356.281 755.228 355.734C761.89 355.038 767.259 354.392 771.336 353.795C775.413 353.149 778.371 352.205 780.21 350.962C782.05 349.719 782.969 347.879 782.969 345.443V344.996C782.969 340.273 781.478 336.619 778.495 334.033C775.562 331.448 771.386 330.156 765.967 330.156C760.249 330.156 755.7 331.423 752.32 333.959C748.939 336.445 746.702 339.577 745.608 343.355L716.226 340.969C717.717 334.009 720.651 327.993 725.026 322.922C729.401 317.801 735.043 313.874 741.954 311.139C748.914 308.355 756.968 306.963 766.116 306.963C772.479 306.963 778.57 307.709 784.386 309.2C790.253 310.692 795.448 313.004 799.972 316.136C804.546 319.268 808.151 323.295 810.786 328.217C813.42 333.089 814.738 338.93 814.738 345.741V423H784.61V407.116H783.715C781.876 410.695 779.415 413.852 776.332 416.587C773.25 419.271 769.546 421.384 765.221 422.925C760.896 424.417 755.899 425.163 750.232 425.163ZM759.33 403.238C764.003 403.238 768.129 402.318 771.709 400.479C775.288 398.589 778.097 396.054 780.136 392.872C782.174 389.69 783.193 386.086 783.193 382.059V369.903C782.199 370.55 780.832 371.146 779.092 371.693C777.401 372.19 775.487 372.663 773.349 373.11C771.212 373.508 769.074 373.881 766.936 374.229C764.798 374.527 762.859 374.8 761.119 375.049C757.391 375.596 754.134 376.466 751.35 377.659C748.566 378.852 746.403 380.468 744.862 382.506C743.321 384.495 742.55 386.981 742.55 389.964C742.55 394.289 744.116 397.595 747.249 399.882C750.43 402.119 754.457 403.238 759.33 403.238ZM839.385 423V308.455H871.153V423H839.385ZM855.343 293.689C850.62 293.689 846.569 292.123 843.188 288.991C839.857 285.809 838.191 282.006 838.191 277.581C838.191 273.206 839.857 269.452 843.188 266.32C846.569 263.138 850.62 261.548 855.343 261.548C860.066 261.548 864.093 263.138 867.424 266.32C870.805 269.452 872.495 273.206 872.495 277.581C872.495 282.006 870.805 285.809 867.424 288.991C864.093 292.123 860.066 293.689 855.343 293.689ZM991.907 341.118L962.823 342.908C962.326 340.422 961.257 338.185 959.616 336.196C957.976 334.158 955.813 332.542 953.128 331.349C950.493 330.106 947.336 329.484 943.657 329.484C938.736 329.484 934.584 330.528 931.204 332.616C927.823 334.655 926.133 337.389 926.133 340.82C926.133 343.554 927.226 345.866 929.414 347.755C931.601 349.644 935.355 351.161 940.675 352.304L961.406 356.48C972.542 358.767 980.845 362.446 986.314 367.517C991.782 372.588 994.517 379.25 994.517 387.503C994.517 395.01 992.305 401.597 987.88 407.265C983.505 412.933 977.489 417.357 969.833 420.539C962.226 423.671 953.452 425.237 943.508 425.237C928.345 425.237 916.264 422.08 907.265 415.766C898.317 409.403 893.072 400.752 891.53 389.815L922.777 388.174C923.721 392.798 926.008 396.327 929.638 398.763C933.267 401.15 937.915 402.343 943.583 402.343C949.151 402.343 953.626 401.274 957.006 399.136C960.437 396.949 962.177 394.14 962.226 390.71C962.177 387.826 960.959 385.464 958.572 383.625C956.186 381.736 952.507 380.294 947.535 379.3L927.699 375.347C916.513 373.11 908.185 369.232 902.716 363.714C897.297 358.195 894.588 351.161 894.588 342.609C894.588 335.251 896.577 328.913 900.554 323.593C904.581 318.273 910.224 314.172 917.482 311.288C924.79 308.405 933.341 306.963 943.135 306.963C957.603 306.963 968.988 310.021 977.29 316.136C985.643 322.251 990.515 330.578 991.907 341.118ZM1047.18 425.163C1039.88 425.163 1033.36 423.895 1027.65 421.359C1021.93 418.774 1017.4 414.971 1014.07 409.95C1010.79 404.879 1009.15 398.565 1009.15 391.008C1009.15 384.644 1010.32 379.3 1012.66 374.974C1014.99 370.649 1018.18 367.169 1022.2 364.534C1026.23 361.899 1030.8 359.911 1035.92 358.568C1041.09 357.226 1046.51 356.281 1052.18 355.734C1058.84 355.038 1064.21 354.392 1068.29 353.795C1072.37 353.149 1075.32 352.205 1077.16 350.962C1079 349.719 1079.92 347.879 1079.92 345.443V344.996C1079.92 340.273 1078.43 336.619 1075.45 334.033C1072.51 331.448 1068.34 330.156 1062.92 330.156C1057.2 330.156 1052.65 331.423 1049.27 333.959C1045.89 336.445 1043.65 339.577 1042.56 343.355L1013.18 340.969C1014.67 334.009 1017.6 327.993 1021.98 322.922C1026.35 317.801 1032 313.874 1038.91 311.139C1045.87 308.355 1053.92 306.963 1063.07 306.963C1069.43 306.963 1075.52 307.709 1081.34 309.2C1087.21 310.692 1092.4 313.004 1096.93 316.136C1101.5 319.268 1105.1 323.295 1107.74 328.217C1110.37 333.089 1111.69 338.93 1111.69 345.741V423H1081.56V407.116H1080.67C1078.83 410.695 1076.37 413.852 1073.29 416.587C1070.2 419.271 1066.5 421.384 1062.17 422.925C1057.85 424.417 1052.85 425.163 1047.18 425.163ZM1056.28 403.238C1060.96 403.238 1065.08 402.318 1068.66 400.479C1072.24 398.589 1075.05 396.054 1077.09 392.872C1079.13 389.69 1080.15 386.086 1080.15 382.059V369.903C1079.15 370.55 1077.78 371.146 1076.04 371.693C1074.35 372.19 1072.44 372.663 1070.3 373.11C1068.16 373.508 1066.03 373.881 1063.89 374.229C1061.75 374.527 1059.81 374.8 1058.07 375.049C1054.34 375.596 1051.09 376.466 1048.3 377.659C1045.52 378.852 1043.36 380.468 1041.82 382.506C1040.27 384.495 1039.5 386.981 1039.5 389.964C1039.5 394.289 1041.07 397.595 1044.2 399.882C1047.38 402.119 1051.41 403.238 1056.28 403.238Z" fill="#F08100"/>
<defs>
<clipPath id="clip0_3200_2232">
<rect width="512" height="512" fill="white"/>
</clipPath>
</defs>
</svg>
