<svg width="512" height="170" viewBox="0 0 512 170" fill="none" xmlns="http://www.w3.org/2000/svg">
<path d="M102.33 169C148.722 169 186.33 131.392 186.33 85C186.33 38.6081 148.722 1 102.33 1C55.938 1 18.33 38.6081 18.33 85C18.33 131.392 55.938 169 102.33 169Z" fill="#EAF9F2"/>
<path d="M106.92 111.74C103.56 91.6299 89.47 63.2299 71.13 75.5999C68.68 77.2899 66.56 79.5399 64.63 82.1099C64.36 82.4599 63.91 82.7799 63.55 82.7799C58.78 82.7799 54.03 82.9099 49.26 82.7499C52.44 75.2999 55.85 68.0499 59.08 60.6299C59.42 59.8599 59.79 59.5699 60.49 59.5699C88.42 59.5899 116.35 59.5899 144.28 59.5699C144.93 59.5699 145.3 59.7899 145.64 60.5499C148.91 68.0199 152.3 75.3099 155.54 82.8099C150.82 82.8099 146.16 82.7899 141.45 82.8299C140.85 82.8299 140.44 82.5899 140.03 82.0399C131.4 69.7199 119.11 69.8199 110 81.1999C118.39 99.9499 126.68 118.49 135.05 137.19C126.83 137.38 118.64 137.19 110.43 137.28C109.67 137.28 109.5 137 109.45 136.04C109.18 131.52 109.07 126.98 108.59 122.49L106.94 111.74H106.92Z" fill="#199C8E"/>
<path d="M97.85 111.74C98.41 108.74 99.28 105.92 99.92 102.96C99.47 97.5499 95.28 90.3999 92.53 86.1699C84.89 103.26 77.33 120.15 69.72 137.16C78.01 137.45 86.33 137.16 94.64 137.28C95.13 137.28 95.28 137.04 95.29 136.44C95.31 133.46 95.47 130.49 95.69 127.52C95.92 124.38 96.3 121.26 96.81 118.16L97.85 111.75V111.74Z" fill="#199C8E"/>
<path d="M57.2299 82.13H57.1699L57.1999 82.1L57.2299 82.13Z" fill="#199C8E"/>
<path d="M57.2299 73.85H57.1699L57.1999 73.83L57.2299 73.85Z" fill="#199C8E"/>
<path d="M147.76 81.6599H146.81L132.94 96.3599C131.8 97.5699 131.35 99.2899 131.84 100.88C133.52 106.34 139.84 110.4 147.38 110.4C154.92 110.4 161.23 106.35 162.91 100.89C163.4 99.2999 162.94 97.5599 161.79 96.3599L147.77 81.6699L147.76 81.6599ZM134.06 97.3899L145.95 84.6099C146.17 84.3699 146.57 84.5299 146.57 84.8499V97.6299C146.57 97.8299 146.41 97.9899 146.21 97.9899H134.32C134.01 97.9899 133.85 97.6199 134.06 97.3899ZM147.95 97.6299V84.7899C147.95 84.4699 148.35 84.3099 148.57 84.5499L160.52 97.3899C160.73 97.6199 160.57 97.9899 160.26 97.9899H148.31C148.11 97.9899 147.95 97.8299 147.95 97.6299Z" fill="#199C8E"/>
<path d="M57.67 81.6599H56.72L42.85 96.3599C41.71 97.5699 41.26 99.2899 41.75 100.88C43.43 106.34 49.75 110.4 57.29 110.4C64.83 110.4 71.14 106.35 72.82 100.89C73.31 99.2999 72.85 97.5599 71.7 96.3599L57.68 81.6699L57.67 81.6599ZM43.97 97.3899L55.86 84.6099C56.08 84.3699 56.48 84.5299 56.48 84.8499V97.6299C56.48 97.8299 56.32 97.9899 56.12 97.9899H44.23C43.92 97.9899 43.76 97.6199 43.97 97.3899ZM57.86 97.6299V84.7899C57.86 84.4699 58.26 84.3099 58.48 84.5499L70.43 97.3899C70.64 97.6199 70.48 97.9899 70.17 97.9899H58.22C58.02 97.9899 57.86 97.8299 57.86 97.6299Z" fill="#199C8E"/>
<path d="M147.32 73.85H147.26L147.29 73.83L147.32 73.85Z" fill="#199C8E"/>
<path d="M147.32 73.85H147.26L147.29 73.83L147.32 73.85Z" fill="#199C8E"/>
<path d="M102.44 53.4C108.151 53.4 112.78 48.7706 112.78 43.06C112.78 37.3493 108.151 32.72 102.44 32.72C96.7294 32.72 92.1 37.3493 92.1 43.06C92.1 48.7706 96.7294 53.4 102.44 53.4Z" fill="#199C8E"/>
<path d="M214.81 124.18L227.2 88.6801H235.28L247.96 124.18H240.98L234.67 105.74C234.05 103.83 233.41 101.68 232.74 99.2701C232.07 96.86 231.33 94.1301 230.52 91.0601H231.85C231.06 94.1601 230.34 96.9201 229.69 99.3401C229.05 101.76 228.44 103.89 227.87 105.74L221.77 124.18H214.81ZM222.03 115.39V110.27H240.73V115.39H222.03Z" fill="#199C8E"/>
<path d="M259.05 88.67V124.17H252.69V88.67H259.05ZM264.7 124.17H255.72V118.67H264.39C266.87 118.67 268.94 118.21 270.6 117.3C272.26 116.39 273.51 115.02 274.35 113.2C275.19 111.38 275.61 109.11 275.61 106.37C275.61 103.63 275.19 101.41 274.35 99.6C273.51 97.79 272.27 96.43 270.64 95.53C269.01 94.63 266.98 94.17 264.55 94.17H255.52V88.67H264.93C268.46 88.67 271.48 89.38 274.01 90.79C276.54 92.2 278.48 94.24 279.84 96.89C281.2 99.54 281.88 102.7 281.88 106.37C281.88 110.04 281.2 113.25 279.84 115.91C278.48 118.57 276.52 120.61 273.95 122.03C271.38 123.45 268.3 124.16 264.69 124.16L264.7 124.17Z" fill="#199C8E"/>
<path d="M296.55 124.18L283.9 88.68H290.88L297.17 107.12C297.76 108.96 298.39 111.09 299.08 113.49C299.76 115.9 300.5 118.62 301.3 121.65H299.97C300.76 118.57 301.49 115.84 302.15 113.45C302.81 111.06 303.42 108.95 304 107.11L310.1 88.67H317.06L304.62 124.17H296.57L296.55 124.18Z" fill="#199C8E"/>
<path d="M335.34 124.65C332.23 124.65 329.44 123.93 326.98 122.48C324.52 121.03 322.58 118.95 321.15 116.24C319.73 113.52 319.02 110.26 319.02 106.45C319.02 102.64 319.73 99.3501 321.15 96.6201C322.57 93.9001 324.51 91.8101 326.98 90.3701C329.45 88.9301 332.23 88.2001 335.34 88.2001C338.45 88.2001 341.21 88.9201 343.67 90.3701C346.13 91.8201 348.06 93.9001 349.48 96.6201C350.9 99.3401 351.61 102.62 351.61 106.45C351.61 110.28 350.9 113.53 349.48 116.25C348.06 118.97 346.12 121.05 343.67 122.49C341.22 123.93 338.44 124.65 335.34 124.65ZM335.34 118.96C337.26 118.96 338.96 118.48 340.45 117.52C341.94 116.56 343.1 115.14 343.94 113.28C344.78 111.41 345.2 109.14 345.2 106.45C345.2 103.76 344.78 101.44 343.94 99.58C343.1 97.71 341.93 96.3001 340.45 95.3401C338.97 94.3801 337.26 93.9001 335.34 93.9001C333.42 93.9001 331.69 94.3801 330.19 95.3501C328.69 96.3201 327.52 97.7401 326.68 99.6001C325.84 101.46 325.41 103.75 325.41 106.45C325.41 109.15 325.83 111.41 326.68 113.26C327.53 115.12 328.7 116.53 330.19 117.5C331.68 118.47 333.4 118.95 335.34 118.95V118.96Z" fill="#199C8E"/>
<path d="M372.78 124.65C369.67 124.65 366.89 123.93 364.44 122.48C361.99 121.03 360.06 118.95 358.65 116.24C357.24 113.52 356.53 110.26 356.53 106.45C356.53 102.64 357.24 99.3501 358.66 96.6201C360.08 93.9001 362.02 91.8101 364.47 90.3701C366.92 88.9301 369.69 88.2001 372.77 88.2001C374.71 88.2001 376.52 88.4701 378.21 89.0201C379.9 89.5701 381.41 90.3701 382.74 91.4301C384.07 92.4901 385.16 93.78 386.02 95.3C386.88 96.83 387.45 98.5601 387.74 100.49H381.33C381.12 99.4301 380.77 98.4901 380.27 97.6801C379.77 96.8701 379.15 96.1801 378.4 95.6201C377.65 95.0601 376.81 94.63 375.87 94.33C374.93 94.04 373.93 93.8901 372.87 93.8901C370.93 93.8901 369.21 94.3801 367.71 95.3501C366.21 96.3201 365.03 97.75 364.18 99.61C363.33 101.48 362.91 103.75 362.91 106.44C362.91 109.13 363.34 111.44 364.2 113.3C365.06 115.16 366.24 116.56 367.74 117.52C369.24 118.47 370.94 118.95 372.85 118.95C373.91 118.95 374.91 118.8 375.85 118.51C376.79 118.22 377.63 117.79 378.39 117.22C379.14 116.66 379.78 115.97 380.28 115.15C380.79 114.33 381.14 113.4 381.33 112.35H387.76C387.52 114.05 387 115.64 386.2 117.13C385.4 118.62 384.35 119.92 383.04 121.05C381.74 122.18 380.22 123.06 378.5 123.69C376.78 124.32 374.87 124.64 372.77 124.64L372.78 124.65Z" fill="#199C8E"/>
<path d="M390.27 124.18L402.66 88.6801H410.74L423.42 124.18H416.44L410.13 105.74C409.51 103.83 408.87 101.68 408.2 99.2701C407.53 96.86 406.79 94.1301 405.98 91.0601H407.31C406.52 94.1601 405.8 96.9201 405.15 99.3401C404.51 101.76 403.9 103.89 403.33 105.74L397.23 124.18H390.27ZM397.49 115.39V110.27H416.19V115.39H397.49Z" fill="#199C8E"/>
<path d="M441.61 124.65C438.5 124.65 435.72 123.93 433.27 122.48C430.82 121.03 428.89 118.95 427.48 116.24C426.07 113.52 425.36 110.26 425.36 106.45C425.36 102.64 426.07 99.3501 427.49 96.6201C428.91 93.9001 430.85 91.8101 433.3 90.3701C435.75 88.9301 438.52 88.2001 441.6 88.2001C443.54 88.2001 445.35 88.4701 447.04 89.0201C448.73 89.5701 450.24 90.3701 451.57 91.4301C452.9 92.4901 453.99 93.78 454.85 95.3C455.71 96.83 456.28 98.5601 456.57 100.49H450.16C449.95 99.4301 449.6 98.4901 449.1 97.6801C448.6 96.8701 447.98 96.1801 447.23 95.6201C446.48 95.0601 445.64 94.63 444.7 94.33C443.76 94.04 442.76 93.8901 441.7 93.8901C439.76 93.8901 438.04 94.3801 436.54 95.3501C435.04 96.3201 433.86 97.75 433.01 99.61C432.16 101.48 431.74 103.75 431.74 106.44C431.74 109.13 432.17 111.44 433.03 113.3C433.89 115.16 435.07 116.56 436.57 117.52C438.07 118.47 439.77 118.95 441.68 118.95C442.74 118.95 443.74 118.8 444.68 118.51C445.62 118.22 446.46 117.79 447.22 117.22C447.97 116.66 448.61 115.97 449.11 115.15C449.62 114.33 449.97 113.4 450.16 112.35H456.59C456.35 114.05 455.83 115.64 455.03 117.13C454.23 118.62 453.18 119.92 451.87 121.05C450.57 122.18 449.05 123.06 447.33 123.69C445.61 124.32 443.7 124.64 441.6 124.64L441.61 124.65Z" fill="#199C8E"/>
<path d="M473.16 124.18V110.43L460.06 88.6801H467.49L473.83 99.8801C474.5 101.06 475.09 102.2 475.62 103.31C476.14 104.42 476.68 105.78 477.24 107.38H475.57C476.11 105.76 476.64 104.39 477.15 103.26C477.67 102.13 478.24 101.01 478.88 99.8801L485.1 88.6801H492.49L479.53 110.43V124.18H473.17H473.16Z" fill="#199C8E"/>
<path d="M215.59 42.11V36.75H243.85V42.11H232.91V72.25H226.55V42.11H215.59Z" fill="#199C8E"/>
<path d="M263.15 72.73C260.04 72.73 257.25 72.01 254.79 70.56C252.33 69.12 250.39 67.03 248.96 64.32C247.54 61.6 246.83 58.34 246.83 54.53C246.83 50.72 247.54 47.43 248.96 44.7C250.38 41.98 252.32 39.89 254.79 38.45C257.25 37 260.04 36.28 263.15 36.28C266.26 36.28 269.02 37 271.48 38.45C273.93 39.9 275.87 41.98 277.29 44.7C278.71 47.42 279.42 50.7 279.42 54.53C279.42 58.36 278.71 61.61 277.29 64.33C275.87 67.05 273.93 69.14 271.48 70.57C269.03 72 266.25 72.73 263.15 72.73ZM263.15 67.04C265.07 67.04 266.77 66.56 268.26 65.6C269.75 64.64 270.91 63.23 271.75 61.36C272.59 59.49 273.01 57.22 273.01 54.53C273.01 51.84 272.59 49.52 271.75 47.66C270.91 45.79 269.74 44.38 268.26 43.42C266.77 42.46 265.07 41.98 263.15 41.98C261.23 41.98 259.5 42.46 258 43.43C256.5 44.4 255.33 45.82 254.49 47.68C253.64 49.55 253.22 51.83 253.22 54.53C253.22 57.23 253.64 59.49 254.49 61.34C255.34 63.19 256.51 64.61 258 65.58C259.49 66.55 261.21 67.03 263.15 67.03V67.04Z" fill="#199C8E"/>
<path d="M285.45 72.25V36.75H298.72C301.44 36.75 303.72 37.26 305.58 38.27C307.44 39.29 308.84 40.68 309.8 42.45C310.76 44.22 311.23 46.23 311.23 48.49C311.23 50.75 310.75 52.78 309.79 54.54C308.83 56.3 307.41 57.69 305.54 58.71C303.66 59.73 301.36 60.23 298.63 60.23H289.84V54.99H297.8C299.4 54.99 300.72 54.71 301.74 54.16C302.76 53.6 303.52 52.83 304 51.85C304.48 50.87 304.73 49.75 304.73 48.49C304.73 47.23 304.49 46.12 304 45.15C303.52 44.18 302.76 43.43 301.72 42.89C300.69 42.35 299.36 42.08 297.74 42.08H291.81V72.24H285.45V72.25Z" fill="#199C8E"/>
</svg>
