<svg width="2400" height="800" viewBox="0 0 2400 800" fill="none" xmlns="http://www.w3.org/2000/svg">
<path d="M572.23 316.33C578.95 311.28 589.74 292.92 587.56 282.04C582.82 258.41 549.22 247.78 525.58 252.42C505.74 256.31 477.22 268.97 452.83 283.69C423.64 301.32 415.31 316.88 349.33 321.12C292.52 324.77 136.35 299.23 136.35 299.23L110.81 317.03L262.53 393.12C262.53 393.12 196.97 423.39 147.07 423.35C123.39 423.33 55.87 397.79 55.87 397.79C55.87 397.79 88.95 453.74 187.1 469.07C237.38 476.92 295.48 464.96 329.21 453.11C365.18 440.48 461.39 388.35 461.39 388.35C461.39 388.35 521.43 354.49 572.22 316.33H572.23Z" fill="#FFCC01"/>
<path d="M398.13 297.6V135.07L292.82 178.89V308.2C309.7 314.21 380.83 314.94 398.13 297.6Z" fill="#FFCC01"/>
<path d="M292.82 472.88V529.46C292.82 529.46 304.26 650.49 424.99 663.75C553.63 677.89 587.56 559.85 587.56 559.85L488.61 525.22C488.61 525.22 478.01 563.39 436.31 559.85C402.83 557.01 398.14 521.68 398.14 521.68V431.44C383.89 444.01 331.97 464.75 292.83 472.88H292.82Z" fill="#FFCC01"/>
<path d="M667.44 327.72H750.96V411.87C762.18 362 793.97 321.49 852.56 321.49C860.04 321.49 866.9 322.11 874.38 323.98V403.76C866.9 402.51 860.67 401.89 853.19 401.89C790.23 401.89 750.97 445.52 750.97 510.35V651.84H667.45V327.72H667.44Z" fill="#FFCC01"/>
<path d="M896.81 489.78C896.81 377.58 977.22 321.49 1052.64 321.49C1110.61 321.49 1148.01 353.28 1156.11 371.36H1157.98V327.73H1241.5V651.85H1157.98V608.22H1156.11C1148.01 626.3 1110.61 658.09 1052.64 658.09C977.22 658.09 896.81 601.99 896.81 489.79V489.78ZM1069.47 583.28C1116.22 583.28 1159.85 550.87 1159.85 489.78C1159.85 428.69 1116.22 396.28 1069.47 396.28C1022.72 396.28 979.09 429.32 979.09 489.78C979.09 550.24 1022.72 583.28 1069.47 583.28Z" fill="#FFCC01"/>
<path d="M1553.16 432.44L1472.75 651.85H1396.08L1277.03 327.73H1359.93L1435.35 552.12L1514.51 327.73H1591.18L1670.34 552.12L1746.38 327.73H1829.28L1710.23 651.85H1633.56L1553.15 432.44H1553.16Z" fill="#6EBF70"/>
<path d="M1871.04 209.29H1954.56V651.84H1871.04V209.29Z" fill="#6EBF70"/>
<path d="M2002.55 489.78C2002.55 380.08 2088.57 321.49 2173.34 321.49C2258.11 321.49 2344.13 380.08 2344.13 489.78C2344.13 599.48 2257.49 658.08 2173.34 658.08C2089.19 658.08 2002.55 599.49 2002.55 489.78ZM2173.34 582.65C2220.09 582.65 2261.23 547.74 2261.23 489.78C2261.23 431.82 2220.09 396.91 2173.34 396.91C2126.59 396.91 2084.83 431.82 2084.83 489.78C2084.83 547.74 2126.59 582.65 2173.34 582.65Z" fill="#6EBF70"/>
</svg>
